<svg xmlns="http://www.w3.org/2000/svg" xmlns:xlink="http://www.w3.org/1999/xlink" viewBox="0 0 158 49">
  <defs>
    <style>
      .a {
        isolation: isolate;
      }

      .b {
        fill: url(#a);
      }

      .c {
        fill: #fff;
      }

      .d {
        fill: url(#b);
      }
    </style>
    <linearGradient id="a" data-name="Безымянный градиент 6" x1="36.59" y1="40.57" x2="13.07" y2="-0.18" gradientUnits="userSpaceOnUse">
      <stop offset="0" stop-color="#2185c7"/>
      <stop offset="1" stop-color="#87c9f5"/>
    </linearGradient>
    <linearGradient id="b" x1="24.7" y1="25.75" x2="19.21" y2="16.25" xlink:href="#a"/>
  </defs>
  <title>logo-main</title>
  <g class="a">
    <g class="a">
      <path d="M66.45,19.11a5.08,5.08,0,0,0-.76-.57,9.19,9.19,0,0,0-1.34-.71,11.51,11.51,0,0,0-1.71-.59A7.41,7.41,0,0,0,60.77,17a4.17,4.17,0,0,0-2.53.63,2.1,2.1,0,0,0-.83,1.78,1.84,1.84,0,0,0,.31,1.1,2.7,2.7,0,0,0,.91.77,7.56,7.56,0,0,0,1.5.6q.91.27,2.1.57,1.55.42,2.81.9a7.61,7.61,0,0,1,2.14,1.2,5,5,0,0,1,1.35,1.73A5.81,5.81,0,0,1,69,28.77a6.24,6.24,0,0,1-.64,2.93,5.42,5.42,0,0,1-1.73,2,7.46,7.46,0,0,1-2.5,1.1,12.42,12.42,0,0,1-3,.35,15.74,15.74,0,0,1-4.7-.72,14.42,14.42,0,0,1-4.17-2l1.82-3.58a5.77,5.77,0,0,0,1,.71,14.66,14.66,0,0,0,1.65.87,12.61,12.61,0,0,0,2.11.74,9.42,9.42,0,0,0,2.38.3q3.39,0,3.39-2.2A1.82,1.82,0,0,0,64.25,28a3.28,3.28,0,0,0-1.1-.84,10.57,10.57,0,0,0-1.73-.66l-2.26-.66a19,19,0,0,1-2.63-.92,6.9,6.9,0,0,1-1.86-1.17,4.39,4.39,0,0,1-1.12-1.56,5.47,5.47,0,0,1-.37-2.12,6.7,6.7,0,0,1,.6-2.89,5.83,5.83,0,0,1,1.65-2.11,7.45,7.45,0,0,1,2.46-1.28,10,10,0,0,1,3-.44,11.55,11.55,0,0,1,4.11.71,15.24,15.24,0,0,1,3.27,1.67Z"/>
      <path d="M81.06,34.07a17.9,17.9,0,0,1-2,.72,8.18,8.18,0,0,1-2.44.36,5.63,5.63,0,0,1-1.56-.21,3.42,3.42,0,0,1-1.28-.68,3.29,3.29,0,0,1-.88-1.2,4.4,4.4,0,0,1-.33-1.79V22.21H70.56v-3.1h2.05V14h4v5.12h3.27v3.1H76.6v7.7A1.44,1.44,0,0,0,77,31.1a1.63,1.63,0,0,0,1.06.35,3.63,3.63,0,0,0,1.22-.21q.59-.21,1-.36Z"/>
      <path d="M90.38,35.18A8.58,8.58,0,0,1,87,34.54a7.71,7.71,0,0,1-4.24-4.35,8.39,8.39,0,0,1-.58-3.1,8.87,8.87,0,0,1,.57-3.18A7.69,7.69,0,0,1,87,19.5a8.59,8.59,0,0,1,3.44-.66,8.38,8.38,0,0,1,3.41.66,7.84,7.84,0,0,1,2.56,1.78A7.59,7.59,0,0,1,98,23.86a8.73,8.73,0,0,1,.55,3.07c0,.26,0,.51,0,.75a3.12,3.12,0,0,1-.08.6H86.39a4.72,4.72,0,0,0,.45,1.66,4.1,4.1,0,0,0,.92,1.23A4,4,0,0,0,89,32a4.13,4.13,0,0,0,1.49.27,4.55,4.55,0,0,0,2.25-.59,3.09,3.09,0,0,0,1.44-1.55l3.42,1a7,7,0,0,1-2.75,3A8.46,8.46,0,0,1,90.38,35.18Zm4-9.51a4.21,4.21,0,0,0-1.29-2.84,4,4,0,0,0-5.52,0,4.12,4.12,0,0,0-.88,1.23,4.39,4.39,0,0,0-.4,1.6Z"/>
      <path d="M110.32,35.18a6.08,6.08,0,0,1-3.21-.83A5.84,5.84,0,0,1,105,32.11v9.18h-4V19.11h3.48v2.71a6.41,6.41,0,0,1,2.23-2.18,6.15,6.15,0,0,1,3.15-.8,6.61,6.61,0,0,1,2.92.65,7.22,7.22,0,0,1,2.31,1.75,8.15,8.15,0,0,1,1.52,2.59,9,9,0,0,1,.55,3.15,10,10,0,0,1-.51,3.22,8.29,8.29,0,0,1-1.41,2.62,6.62,6.62,0,0,1-2.16,1.75A6,6,0,0,1,110.32,35.18ZM109,31.75a3.55,3.55,0,0,0,1.65-.39,4,4,0,0,0,1.29-1.05,4.93,4.93,0,0,0,.83-1.53,5.54,5.54,0,0,0,.3-1.81,5.14,5.14,0,0,0-.33-1.85,4.61,4.61,0,0,0-.91-1.49,4.24,4.24,0,0,0-1.37-1,4.06,4.06,0,0,0-1.71-.36,3.7,3.7,0,0,0-1.16.2,4.08,4.08,0,0,0-1.1.56,4.82,4.82,0,0,0-.91.84,3.47,3.47,0,0,0-.61,1.05v3.7a5.35,5.35,0,0,0,1.64,2.24A3.72,3.72,0,0,0,109,31.75Z"/>
    </g>
    <g class="a">
      <path d="M128.71,33.62a7.06,7.06,0,0,0,3.56-.81,6.22,6.22,0,0,0,2.23-2.14,9.15,9.15,0,0,0,1.16-3,17,17,0,0,0,.34-3.4V13.51h1.52V24.26a17.72,17.72,0,0,1-.46,4.09,9.92,9.92,0,0,1-1.5,3.45,7.49,7.49,0,0,1-2.71,2.36,10.14,10.14,0,0,1-8.33,0,7.55,7.55,0,0,1-2.72-2.44,10,10,0,0,1-1.46-3.45,18.14,18.14,0,0,1-.43-4V13.51h1.52V24.26a17.31,17.31,0,0,0,.34,3.46,8.58,8.58,0,0,0,1.19,3,6.44,6.44,0,0,0,2.25,2.11A7,7,0,0,0,128.71,33.62Z"/>
      <path d="M149.84,35.18a6.15,6.15,0,0,1-3.56-1.07,8.67,8.67,0,0,1-2.51-2.6v9.78h-1.49V19.23h1.37v3.13a7.59,7.59,0,0,1,2.51-2.45,6.35,6.35,0,0,1,3.35-.95,6.5,6.5,0,0,1,3,.69,7.67,7.67,0,0,1,2.35,1.82,8.42,8.42,0,0,1,1.53,2.6,8.56,8.56,0,0,1,.55,3,9.49,9.49,0,0,1-.51,3.1A8,8,0,0,1,155,32.77a6.89,6.89,0,0,1-2.25,1.76A6.43,6.43,0,0,1,149.84,35.18Zm-.36-1.35a5.22,5.22,0,0,0,2.44-.57,5.92,5.92,0,0,0,1.88-1.52A6.94,6.94,0,0,0,155,29.57a7.64,7.64,0,0,0,.42-2.48,7,7,0,0,0-.48-2.57,6.94,6.94,0,0,0-1.32-2.15,6.61,6.61,0,0,0-2-1.49,5.39,5.39,0,0,0-2.41-.56,4.82,4.82,0,0,0-1.71.35,7.32,7.32,0,0,0-1.71.93,6.51,6.51,0,0,0-1.37,1.34,3.19,3.19,0,0,0-.65,1.6v5.15a7.48,7.48,0,0,0,1,1.63,7.6,7.6,0,0,0,1.34,1.32,6,6,0,0,0,1.61.89A5.15,5.15,0,0,0,149.48,33.83Z"/>
    </g>
  </g>
  <g>
    <path class="b" d="M34.5,38.54A41.52,41.52,0,0,1,22,49,41.1,41.1,0,0,1,9.41,38.54Q-.19,26.36,0,7.37A61.1,61.1,0,0,0,10.52,4.81,91.79,91.79,0,0,0,22,0,91.59,91.59,0,0,0,33.37,4.81,61.4,61.4,0,0,0,43.91,7.37Q44.09,26.48,34.5,38.54Z"/>
    <path class="c" d="M22,10A11,11,0,1,1,11,21v0A11,11,0,0,1,22,10Z"/>
    <circle class="d" cx="21.95" cy="21" r="5.48"/>
  </g>
</svg>
